<svg xmlns="http://www.w3.org/2000/svg" viewBox="0 0 159 60"><linearGradient id="a" x1="10021.697" x2="9973.254" y1="-239.542" y2="-239.542" gradientUnits="userSpaceOnUse" gradientTransform="matrix(1 0 0 -1 -9971.295 -205.6)"><stop offset="0" stop-color="#F08F0C"/><stop offset="1" stop-color="#E8511F"/></linearGradient><path fill="url(#a)" d="M50.394 16.78v26.882c.328 7.164-9.244 11.518-15.89 12.89-2.87.59-9.13-.835-11.73-2.35l-19.336-9.97c-.506-.344-1.48-.933-1.48-2.995v-28.13c0-3.916 3.64-.762 6.498.337L23.2 20.607c2.38 1.347 7.383 2.14 9.833 2.215 9.782.298 17.36-6.042 17.36-6.042z"/><path fill="#FF671B" d="M79.09 33.8h21.196v6.533H79.09z"/><path fill="#2E2A25" d="M103.854 10.556H62.8V40.433h9.82V28.72h31.234c2.894 0 5.263-2.37 5.263-5.264V15.82c0-2.895-2.37-5.264-5.263-5.264zm-3.568 9.788c0 1.44-1.177 2.616-2.617 2.616H72.55v-6.61c0-.02-.018-.034 0-.034h25.12c1.44 0 2.616 1.178 2.616 2.615v1.414zM158.063 20.257V16.51l-.03-.002c-.26-3.48-3.175-6.25-6.717-6.25H118.49c-3.708 0-6.746 3.037-6.746 6.75V33.36c0 3.71 3.038 6.747 6.746 6.747h32.825c3.575 0 6.516-2.823 6.724-6.35l.022-.004v-3.746h-9.68v3.746h-24.344c-1.44 0-2.614-1.177-2.614-2.616V19.23c0-1.44 1.175-2.617 2.614-2.617h24.343v3.644h9.683z" opacity=".8"/><g fill="#2E2A25" opacity=".4"><path d="M67.558 48.742v-.502c0-.276-.036-.48-.092-.643-.062-.152-.164-.26-.32-.333-.143-.074-.346-.125-.598-.144-.254-.018-.58-.027-.967-.027-.442 0-.803.023-1.075.073-.28.047-.496.15-.643.3-.153.153-.26.362-.296.64-.05.28-.083.645-.083 1.095v2.054c0 .457.024.83.07 1.117.045.294.14.52.282.68.142.16.357.27.63.32.273.063.65.096 1.118.096.35 0 .66-.016.928-.037.26-.02.48-.07.65-.158.164-.09.295-.224.37-.412.085-.18.125-.438.125-.773v-.508h1.773v.61c.016.702-.077 1.235-.256 1.598-.19.367-.446.636-.788.806-.332.165-.737.268-1.222.307-.475.03-1.006.056-1.58.083-.82.03-1.467-.013-1.98-.135-.49-.132-.89-.335-1.165-.626-.282-.3-.466-.687-.565-1.163-.1-.48-.16-1.06-.166-1.73v-2.127c0-.74.08-1.344.223-1.816.15-.462.377-.837.693-1.108.315-.276.717-.455 1.2-.556.496-.1 1.08-.146 1.76-.146.574 0 1.1.016 1.546.04.452.035.835.13 1.156.295.313.17.56.436.737.79.175.36.28.876.32 1.54v.502H67.56v-.003zM75.956 45.683c.49.072.906.227 1.227.465.335.23.575.575.74 1.026.157.446.236 1.043.236 1.786v2.49c0 .74-.072 1.337-.22 1.803-.144.464-.382.82-.7 1.07-.32.253-.73.43-1.224.524-.502.088-1.102.135-1.804.135-.715 0-1.324-.046-1.817-.12-.5-.083-.904-.258-1.208-.503-.312-.246-.532-.62-.678-1.076-.143-.466-.212-1.08-.212-1.832v-2.49c0-.72.065-1.303.204-1.746.13-.446.34-.79.65-1.032.308-.246.705-.403 1.21-.486.5-.083 1.118-.12 1.85-.12.668-.004 1.248.03 1.744.105zm-2.88 1.497c-.28.062-.49.152-.637.288-.144.148-.24.34-.282.573-.046.24-.072.548-.08.92v2.49c0 .462.025.818.08 1.09.065.27.17.473.32.603.15.14.365.22.647.263.276.035.64.06 1.084.06.404 0 .74-.028 1.02-.068.276-.038.5-.13.672-.268.18-.147.297-.343.37-.606.072-.275.108-.626.108-1.073v-2.49c.01-.437-.025-.775-.103-1.03-.08-.24-.197-.432-.376-.55-.172-.128-.398-.202-.68-.24-.278-.03-.615-.045-1.013-.045-.47 0-.85.026-1.132.085zM85.63 54.906h-1.59l-2.94-7.768h-.037l.15 7.77H79.44v-9.255h2.847l2.52 6.876h.05l2.47-6.877h2.914v9.255h-1.783l.154-7.804h-.065l-2.914 7.802zM91.72 45.652h4.095c.615 0 1.138.04 1.565.13.42.083.77.255 1.015.484.256.236.44.564.552.976.106.41.17.94.17 1.592 0 .657-.064 1.188-.174 1.584-.114.402-.31.713-.575.933-.254.222-.6.37-1.02.446-.422.074-.93.114-1.533.114H93.5v2.997h-1.78v-9.255zm4.094 4.735c.32-.007.575-.032.78-.072.195-.04.355-.12.462-.23.112-.108.186-.27.22-.472.045-.196.06-.458.06-.78 0-.328-.015-.6-.05-.812-.03-.213-.104-.388-.21-.518-.107-.123-.262-.215-.46-.26-.212-.05-.475-.075-.802-.075H93.5v3.22h2.314zM105.607 45.683c.49.072.902.227 1.23.465.33.23.574.575.734 1.026.168.446.236 1.043.236 1.786v2.49c0 .74-.064 1.337-.212 1.803-.154.464-.386.82-.707 1.07-.322.253-.73.43-1.23.524-.5.088-1.09.135-1.793.135-.717 0-1.323-.046-1.82-.12-.5-.083-.91-.258-1.218-.503-.307-.246-.527-.62-.67-1.076-.137-.466-.207-1.08-.207-1.832v-2.49c0-.72.062-1.303.19-1.746.138-.446.36-.79.658-1.032.305-.246.71-.403 1.215-.486.498-.083 1.114-.12 1.85-.12.67-.004 1.244.03 1.744.105zm-2.878 1.497c-.278.062-.49.152-.637.288-.148.148-.237.34-.29.573-.04.24-.072.548-.08.92v2.49c0 .462.032.818.09 1.09.058.27.166.473.315.603.154.14.37.22.652.263.28.035.642.06 1.088.06.397 0 .74-.028 1.013-.068.28-.038.507-.13.674-.268.173-.147.294-.343.373-.606.08-.275.11-.626.11-1.073v-2.49c.006-.437-.02-.775-.1-1.03-.09-.24-.21-.432-.384-.55-.167-.128-.398-.202-.675-.24-.28-.03-.626-.045-1.013-.045-.48 0-.857.026-1.136.085zM115.89 45.652h1.772v9.255h-2.94l-3.943-7.74h-.06l.146 7.74h-1.78v-9.255h2.94l3.96 7.736h.054l-.15-7.736zM120.927 49.48h4.33v1.455h-4.33v2.454h4.603v1.518h-6.383v-9.255h6.34v1.515h-4.56v2.31zM133.688 45.652h1.78v9.255h-2.953l-3.938-7.74h-.06l.145 7.74h-1.773v-9.255h2.927l3.97 7.736h.056l-.155-7.736zM140.78 54.906H139v-7.74h-2.716v-1.514h7.21v1.514h-2.715v7.74zM145.948 49.48h4.33v1.455h-4.33v2.454h4.606v1.518h-6.386v-9.255h6.347v1.515h-4.567v2.31zM153.284 51.957v.433c0 .26.03.466.1.623.062.15.18.267.332.336.163.075.38.122.648.145.27.015.606.03 1.013.03.408 0 .735-.022.967-.06.248-.042.438-.12.556-.23.138-.105.224-.25.26-.42.045-.17.064-.392.064-.665 0-.327-.046-.574-.13-.738-.093-.156-.23-.266-.397-.335-.175-.07-.394-.105-.658-.11-.26-.012-.562-.02-.905-.033-.5-.035-.965-.07-1.402-.108-.44-.043-.818-.138-1.138-.305-.325-.16-.577-.426-.76-.786-.194-.352-.282-.872-.282-1.546 0-.634.096-1.126.286-1.477.192-.358.457-.617.8-.787.34-.17.745-.265 1.205-.3.47-.03.974-.05 1.534-.05.478 0 .92.02 1.34.05.41.035.784.127 1.082.285.323.158.563.406.74.742.18.342.278.8.278 1.418v.29h-1.78v-.29c0-.245-.032-.443-.084-.588-.053-.135-.144-.242-.277-.31-.13-.07-.31-.113-.512-.124-.206-.013-.47-.016-.79-.016-.437 0-.798.016-1.06.04-.27.03-.478.087-.617.167-.137.077-.245.2-.293.35-.05.152-.072.356-.072.6 0 .29.022.51.064.667.036.152.134.278.273.355.145.084.342.14.617.177.272.03.627.06 1.075.09.72.04 1.313.09 1.773.152.47.066.84.186 1.114.362.27.184.465.438.583.77.106.332.165.8.165 1.386 0 .65-.08 1.163-.23 1.536-.16.378-.378.658-.683.85-.308.198-.683.323-1.14.37-.447.046-.975.074-1.568.074-.503 0-.995-.012-1.47-.035-.467-.015-.878-.105-1.24-.27-.358-.16-.638-.414-.85-.76-.21-.357-.32-.86-.32-1.526v-.433h1.784v.003z"/></g><linearGradient id="b" x1="385.165" x2="365.024" y1="-214.783" y2="-214.783" gradientUnits="userSpaceOnUse" gradientTransform="matrix(1 0 0 -1 -341.34 -205.6)"><stop offset="0" stop-color="#F08F0C"/><stop offset="1" stop-color="#E8511F"/></linearGradient><path fill="url(#b)" d="M24.99 13.608c2.06 1.166 6.475 2.592 8.148 2.63h.122c2.22 0 5.978-1.322 9.79-3.095.66-.424 1.68-1.442-.826-2.728-4.402-2.26-12.04-6.022-12.04-6.022-2.86-1.098-6.5-4.283-6.498-.366v8.945l1.304.636z"/></svg>